<svg xmlns="http://www.w3.org/2000/svg" viewBox="0 0 24 24" aria-hidden="true">
  <path fill="#fff" d="M12 2.2c-5.35 0-9.7 4.2-9.7 9.4 0 1.85.55 3.65 1.58 5.19L2 22l5.44-1.74a9.9 9.9 0 0 0 4.56 1.1c5.35 0 9.7-4.2 9.7-9.4s-4.35-9.4-9.7-9.4Zm0 17.55a8.34 8.34 0 0 1-4.2-1.13l-.3-.18-3.2 1.03 1.05-3.03-.2-.31a7.9 7.9 0 0 1-1.22-4.23c0-4.32 3.63-7.83 8.07-7.83s8.07 3.51 8.07 7.83c0 4.31-3.63 7.82-8.07 7.82Z"/>
  <path fill="#fff" d="M16.56 13.88c-.24-.12-1.4-.68-1.62-.76-.22-.08-.38-.12-.54.12-.16.24-.62.76-.76.92-.14.16-.28.18-.52.06-.24-.12-1.01-.36-1.92-1.16-.71-.62-1.19-1.38-1.33-1.62-.14-.24-.01-.37.11-.49.1-.1.24-.26.36-.39.12-.14.16-.24.24-.4.08-.16.04-.3-.02-.42-.06-.12-.54-1.28-.74-1.74-.2-.48-.4-.41-.54-.41h-.46c-.16 0-.42.06-.64.3-.22.24-.84.82-.84 2s.86 2.31.98 2.47c.12.16 1.7 2.62 4.13 3.67.58.25 1.03.4 1.39.51.58.18 1.11.16 1.53.1.47-.07 1.4-.57 1.6-1.13.2-.56.2-1.04.14-1.13-.06-.1-.22-.16-.46-.28Z"/>
</svg>
